HIERARCHY
ROOT Bip001_Pelvis
{
  OFFSET 34.4345 95.6767 -26.8758
  CHANNELS 6 Xposition Yposition Zposition Zrotation Xrotation Yrotation
  JOINT Bip001_Spine
  {
    OFFSET 1.4188e-005 10.2191 -0.0116013
    CHANNELS 3 Zrotation Xrotation Yrotation
    JOINT Bip001_L_Thigh
    {
      OFFSET 11.0458 -10.2192 0.0116197
      CHANNELS 3 Zrotation Xrotation Yrotation
      JOINT Bip001_L_Calf
      {
        OFFSET -0.707118 -44.0221 0.360014
        CHANNELS 3 Zrotation Xrotation Yrotation
        JOINT Bip001_L_Foot
        {
          OFFSET -0.651902 -40.5938 -3.56146
          CHANNELS 3 Zrotation Xrotation Yrotation
          JOINT Bip001_L_Toe0
          {
            OFFSET 0.0530839 -10.2181 13.1504
            CHANNELS 3 Zrotation Xrotation Yrotation
            End Site
            {
              OFFSET -1.02532e-005 0 7.55606
            }
          }
        }
      }
    }
    JOINT Bip001_R_Thigh
    {
      OFFSET -11.0458 -10.2191 0.0115893
      CHANNELS 3 Zrotation Xrotation Yrotation
      JOINT Bip001_R_Calf
      {
        OFFSET 0.706994 -44.0221 0.35984
        CHANNELS 3 Zrotation Xrotation Yrotation
        JOINT Bip001_R_Foot
        {
          OFFSET 0.651786 -40.5938 -3.5613
          CHANNELS 3 Zrotation Xrotation Yrotation
          JOINT Bip001_R_Toe0
          {
            OFFSET -0.0531479 -10.2181 13.1504
            CHANNELS 3 Zrotation Xrotation Yrotation
            End Site
            {
              OFFSET -1.02894e-005 0 7.55606
            }
          }
        }
      }
    }
    JOINT Bip001_Spine1
    {
      OFFSET 1.87041e-005 14.5736 1.08638
      CHANNELS 3 Zrotation Xrotation Yrotation
      JOINT Bip001_Spine2
      {
        OFFSET 2.24614e-005 14.5058 -1.69078
        CHANNELS 3 Zrotation Xrotation Yrotation
        JOINT Bip001_Neck
        {
          OFFSET 2.20278e-005 15.3945 -0.489414
          CHANNELS 3 Zrotation Xrotation Yrotation
          JOINT Bip001_L_Clavicle
          {
            OFFSET 6.06036 -0.000579998 0.00836775
            CHANNELS 3 Zrotation Xrotation Yrotation
            JOINT Bip001_L_UpperArm
            {
              OFFSET 11.5509 -0.0600302 0.00193952
              CHANNELS 3 Zrotation Xrotation Yrotation
              JOINT Bip001_L_Forearm
              {
                OFFSET 25.9523 0.0806089 -2.15551
                CHANNELS 3 Zrotation Xrotation Yrotation
                JOINT Bip001_L_Hand
                {
                  OFFSET 32.2475 0.153767 1.63968
                  CHANNELS 3 Zrotation Xrotation Yrotation
                  JOINT Bip001_L_Finger0
                  {
                    OFFSET 6.04639 -2.20976 5.90322
                    CHANNELS 3 Zrotation Xrotation Yrotation
                    End Site
                    {
                      OFFSET 4.22375 -1.43895 0.606485
                    }
                  }
                  JOINT Bip001_L_Finger1
                  {
                    OFFSET 11.0826 -0.704819 -0.198153
                    CHANNELS 3 Zrotation Xrotation Yrotation
                    End Site
                    {
                      OFFSET 6.20027 -0.397518 -0.0787166
                    }
                  }
                }
              }
            }
          }
          JOINT Bip001_R_Clavicle
          {
            OFFSET -6.06037 -0.000563197 0.00835105
            CHANNELS 3 Zrotation Xrotation Yrotation
            JOINT Bip001_R_UpperArm
            {
              OFFSET -11.5509 -0.0599978 0.00190698
              CHANNELS 3 Zrotation Xrotation Yrotation
              JOINT Bip001_R_Forearm
              {
                OFFSET -25.9523 0.0806822 -2.15589
                CHANNELS 3 Zrotation Xrotation Yrotation
                JOINT Bip001_R_Hand
                {
                  OFFSET -32.2475 0.153859 1.63989
                  CHANNELS 3 Zrotation Xrotation Yrotation
                  JOINT Bip001_R_Finger0
                  {
                    OFFSET -6.04641 -2.20976 5.90317
                    CHANNELS 3 Zrotation Xrotation Yrotation
                    End Site
                    {
                      OFFSET -4.22376 -1.43895 0.60647
                    }
                  }
                  JOINT Bip001_R_Finger1
                  {
                    OFFSET -11.0826 -0.704794 -0.198182
                    CHANNELS 3 Zrotation Xrotation Yrotation
                    End Site
                    {
                      OFFSET -6.20028 -0.397504 -0.0787333
                    }
                  }
                }
              }
            }
          }
          JOINT Bip001_Head
          {
            OFFSET 1.09673e-005 11.2744 2.05948
            CHANNELS 3 Zrotation Xrotation Yrotation
            End Site
            {
              OFFSET 2.89576e-005 20.8808 -2.77728e-005
            }
          }
        }
      }
    }
  }
}
MOTION
Frames:	12
Frame Time:	0.04
32.5184 95.7037 -29.4062 -1.29956 -1.27886 -0.663783 0.0159389 2.29785 -0.477235 7.85876 -1.79235 13.4012 0.818298 10.1296 -1.50459 -1.98636 -6.6839 0.0422997 1.70049 -3.78082 -1.30102 -3.04932 -1.44411 -1.98802 0.145013 8.6208 -0.638609 -6.15032 -7.00319 -2.19379 2.6582 -9.351 3.48299 0.0897469 4.5894 -0.940811 0.0896382 4.5894 -0.941068 5.4256 -4.39149 -1.03571 -27.576 5.9879 -2.65004 -56.433 37.2587 4.50682 13.4001 -6.95443 -23.9674 8.40286 1.37705 -2.40716 -3.18055e-015 1.27222e-014 -3.18055e-015 0 1.27222e-014 -0 16.2641 11.3603 20.3501 60.9068 32.3042 -4.79501 -24.2947 14.78 15.2239 3.35646 -6.9402 8.2898 0 0 -0 -1.59028e-015 -3.18056e-015 7.95139e-016 -4.04448 -2.82686 1.18714 
32.4971 95.7081 -29.3764 -1.30578 -1.28457 -0.663784 0.0159389 2.29785 -0.477235 7.87314 -1.76148 13.2883 0.807987 10.1262 -1.36734 -2.08263 -6.76594 0.0423069 1.63116 -3.67161 -1.26884 -3.035 -1.41482 -1.97408 0.151396 8.62083 -0.621897 -6.16272 -7.00312 -2.22021 2.65577 -9.35579 3.46635 0.0897469 4.5894 -0.940811 0.0896382 4.5894 -0.941068 5.41346 -4.43742 -1.03577 -27.5584 6.03261 -2.61406 -56.4307 37.2901 4.49979 13.397 -7.01121 -23.9967 8.51742 1.35925 -2.44688 1.76556e-031 -3.18055e-015 3.18055e-015 3.53113e-031 -6.36111e-015 3.18055e-015 16.265 11.3976 20.3273 60.8766 32.3757 -4.74204 -24.3135 14.737 15.1957 3.27906 -6.97248 8.29037 4.77083e-015 0 -1.59028e-015 1.59028e-015 0 -7.95139e-016 -4.08117 -2.89725 1.18721 
32.4685 95.6995 -29.3542 -1.32466 -1.27708 -0.636199 0.0159389 2.29785 -0.477235 7.94855 -1.76473 13.2435 0.77194 10.1891 -1.28225 -2.30584 -6.92428 0.0423209 1.5747 -3.54236 -1.24025 -2.98479 -1.41331 -1.8955 0.164442 8.62918 -0.681527 -6.18943 -7.00384 -2.28886 2.66079 -9.38304 3.48709 0.0872417 4.58938 -0.959401 0.0869947 4.58938 -0.959302 5.39226 -4.41294 -1.03574 -27.5575 6.01223 -2.62602 -56.4046 37.3145 4.475 13.521 -6.76296 -23.9273 8.5889 1.19616 -2.54678 -6.36111e-015 3.18055e-015 -0 -3.18055e-015 0 -3.18055e-015 16.3122 11.3967 20.3942 60.7871 32.3536 -4.75833 -24.3705 14.7067 15.1999 2.98521 -7.09821 8.30455 1.59028e-015 -3.18055e-015 7.95139e-016 -1.59028e-015 -6.36111e-015 -0 -4.09148 -2.98547 1.19275 
32.4489 95.7056 -29.3301 -1.31561 -1.2526 -0.584341 0.0161658 2.29785 -0.482895 7.92543 -1.76548 13.226 0.78235 10.1012 -1.339 -2.10496 -6.75237 0.0423057 1.64427 -3.66901 -1.29931 -2.98328 -1.41161 -1.86505 0.173515 8.61485 -0.671506 -6.20892 -7.00554 -2.35653 2.65945 -9.37307 3.48493 0.0687611 4.58935 -0.976999 0.0686358 4.58935 -0.977138 5.44367 -4.4992 -1.03586 -27.6211 6.09801 -2.62231 -56.3785 37.3203 4.44242 13.4583 -6.81201 -23.911 8.62668 1.21055 -2.52459 -7.06225e-031 -6.36111e-015 -6.36111e-015 -7.06225e-031 -6.36111e-015 -6.36111e-015 16.2887 11.4785 20.3316 60.6456 32.2135 -4.73303 -24.3593 14.7227 15.244 2.57438 -7.23286 8.31925 3.18055e-015 3.18055e-015 -1.59028e-015 3.18055e-015 3.18056e-015 -7.95139e-016 -4.09348 -2.82335 1.20988 
32.4241 95.6972 -29.3038 -1.32531 -1.25404 -0.57595 0.0162076 2.29785 -0.483937 7.94569 -1.74889 13.2351 0.777194 10.1004 -1.3699 -1.92922 -6.6304 0.0422951 1.74289 -3.82442 -1.39053 -2.95252 -1.38724 -1.82399 0.191423 8.61417 -0.690695 -6.25088 -7.02829 -2.43745 2.66299 -9.40203 3.50329 0.0635968 4.58782 -0.977907 0.0635108 4.58782 -0.977969 5.46647 -4.47318 -1.03582 -27.6161 6.06937 -2.61888 -56.4772 37.3955 4.45953 13.4782 -6.86652 -23.9051 8.56551 1.22742 -2.55634 0 0 -3.18055e-015 0 0 -3.18055e-015 16.244 11.4505 20.362 60.6422 32.2703 -4.82334 -24.3917 14.5092 15.2484 2.02622 -7.42605 8.33295 -4.41391e-032 -3.18055e-015 -7.95139e-016 3.18055e-015 3.18056e-015 -7.95139e-016 -4.09806 -2.76736 1.22742 
32.4025 95.699 -29.2857 -1.33422 -1.2194 -0.556824 0.0162373 2.29785 -0.484678 7.97998 -1.74313 13.1037 0.75235 10.0462 -1.24267 -2.12242 -6.74028 0.0423046 1.67006 -3.69631 -1.30029 -2.93197 -1.40511 -1.79851 0.192073 8.62864 -0.664742 -6.25657 -7.0211 -2.42797 2.65376 -9.3452 3.47441 0.0606863 4.57324 -0.978212 0.0606868 4.57327 -0.978216 5.21814 -4.65953 -0.974176 -27.3722 6.27196 -2.58811 -56.5605 37.484 4.4919 13.537 -6.85211 -23.8879 8.59856 1.24717 -2.56273 3.18055e-015 3.18055e-015 6.36111e-015 6.36111e-015 3.18056e-015 3.18055e-015 16.5083 11.6095 20.2265 60.6275 32.2881 -4.95654 -24.4708 14.5833 15.2531 1.46235 -7.66017 8.44085 3.18055e-015 -9.54166e-015 -3.18055e-015 -2.64834e-031 -9.54167e-015 -1.59028e-015 -3.83551 -2.43364 1.17191 
32.3905 95.6929 -29.2562 -1.32701 -1.23532 -0.555862 0.0162631 2.29785 -0.485322 7.97627 -1.73792 13.0975 0.781934 10.1153 -1.24408 -2.2295 -6.83876 0.0421412 1.59548 -3.60878 -1.24369 -2.93439 -1.39296 -1.84387 0.201981 8.67992 -0.670906 -6.26363 -7.08267 -2.42102 2.65619 -9.35595 3.475 0.0465415 4.58766 -0.978197 0.0462932 4.58767 -0.978186 5.50793 -5.03574 -1.03665 -27.6846 6.56815 -2.36501 -56.5808 37.4858 4.47139 13.5203 -6.89386 -23.9143 8.6565 1.22018 -2.56461 3.18055e-015 0 3.18055e-015 3.18055e-015 -3.18056e-015 3.18055e-015 16.2415 11.9895 20.1846 60.568 32.1965 -5.08723 -24.435 14.6165 15.2788 0.532009 -7.96846 8.46565 -2.64834e-031 9.54166e-015 1.59028e-015 3.18055e-015 9.54167e-015 -0 -4.16277 -1.81568 1.25508 
32.3763 95.6909 -29.2413 -1.32024 -1.22533 -0.542088 0.0119015 2.29784 -0.486072 8.03075 -1.76679 13.2062 0.782428 10.2006 -1.23184 -2.66818 -7.13407 0.0392644 1.49614 -3.34372 -1.19456 -2.93708 -1.39135 -1.8301 0.215178 8.67893 -0.65635 -6.29178 -7.0911 -2.46359 2.65929 -9.36499 3.47631 0.0423584 4.58794 -0.977113 0.040789 4.58794 -0.97711 5.61779 -4.85384 -0.987839 -27.7866 6.41675 -2.45968 -56.6114 37.4494 4.48939 13.5146 -6.79668 -23.9401 8.67913 1.20173 -2.56321 0 3.18055e-015 -0 -3.18055e-015 -3.18056e-015 -0 16.1465 11.8062 20.1991 60.5958 32.1655 -5.31338 -24.3983 14.5209 15.2616 -0.41349 -8.21259 8.50096 3.18055e-015 3.18055e-015 -1.59028e-015 3.18055e-015 6.36111e-015 -0 -4.38162 -1.95824 1.38509 
32.3701 95.6911 -29.2151 -1.29392 -1.22647 -0.505557 0.00464497 2.29784 -0.488949 7.99678 -1.72463 13.2086 0.7969 10.1229 -1.3225 -2.53264 -7.02523 0.0363524 1.51425 -3.4248 -1.20126 -2.94815 -1.39046 -1.88751 0.20681 8.73808 -0.592205 -6.32135 -7.12642 -2.46048 2.6612 -9.35552 3.47784 0.0293411 4.59577 -0.978775 0.0293402 4.59577 -0.978778 5.49067 -4.6621 -0.980731 -27.6358 6.25083 -2.54438 -56.6114 37.4709 4.47308 13.4956 -6.76398 -23.9318 8.59344 1.25308 -2.5386 0 6.36111e-015 -0 3.18055e-015 9.54167e-015 -0 16.2462 11.604 20.2031 60.6367 32.1595 -5.51499 -24.3863 14.6596 15.2338 -1.27653 -8.56794 8.64264 6.36111e-015 -3.18055e-015 -0 9.54166e-015 0 -0 -4.2518 -2.1827 1.33146 
32.3736 95.6784 -29.1908 -1.25816 -1.25592 -0.471784 -0.00367051 2.29784 -0.494558 7.91669 -1.6795 13.3286 0.822674 10.0479 -1.61072 -1.81164 -6.6 0.0362982 1.7786 -3.91271 -1.37167 -2.9861 -1.39021 -1.89567 0.214721 8.84945 -0.592158 -6.35809 -7.19955 -2.47273 2.66576 -9.38801 3.47986 0.0108834 4.60192 -0.986753 0.0108836 4.60192 -0.986754 5.34399 -4.55511 -1.01304 -27.4881 6.16533 -2.63266 -56.5863 37.4736 4.53171 13.408 -6.80101 -23.9476 8.55943 1.27217 -2.54075 -0 0 6.36111e-015 1.76556e-031 -3.18056e-015 3.18055e-015 16.3948 11.505 20.2276 60.7073 32.1059 -5.77024 -24.2925 14.4866 15.1992 -2.41796 -8.88466 8.6603 -8.82781e-032 3.18055e-015 1.59028e-015 3.18055e-015 3.18056e-015 1.59028e-015 -4.06091 -2.28047 1.22152 
32.3742 95.6809 -29.1771 -1.24124 -1.23424 -0.458993 -0.0085105 2.29784 -0.507333 7.92903 -1.67458 13.2186 0.805462 10.0396 -1.4035 -2.30902 -6.8687 0.0368862 1.60386 -3.62921 -1.2458 -2.99031 -1.43389 -1.82428 0.218994 8.91515 -0.597652 -6.37437 -7.21338 -2.50298 2.66654 -9.35559 3.48136 0.00342023 4.60417 -1.01555 0.00341994 4.60417 -1.01555 4.98616 -5.00246 -1.1092 -27.2204 6.56259 -2.44102 -56.3015 37.5901 4.54936 13.2632 -6.66187 -23.965 8.57766 1.29116 -2.67412 -6.36111e-015 0 -3.18055e-015 -6.36111e-015 0 -0 16.7921 11.9651 20.1525 60.8723 32.1291 -6.09953 -24.3532 14.3629 15.1209 -3.6116 -9.27725 8.71168 3.18055e-015 -3.18055e-015 3.18055e-015 8.82782e-032 -3.18056e-015 1.59028e-015 -3.54268 -1.72299 0.928154 
32.407 95.6765 -29.1578 -1.15403 -1.22037 -0.492876 -0.0229986 2.29782 -0.54865 7.80168 -1.5883 13.064 0.747932 9.86322 -1.24735 -1.918 -6.6076 0.0376763 1.7007 -3.85869 -1.32518 -3.10465 -1.48518 -1.87633 0.211655 9.01161 -0.56817 -6.38152 -7.28965 -2.37907 2.67619 -9.41575 3.48404 -0.0243546 4.59693 -1.09771 -0.024161 4.59691 -1.09769 5.07369 -5.01421 -1.12629 -27.3548 6.57799 -2.46929 -55.8363 37.8814 4.50538 13.2473 -6.2085 -23.8924 8.33 1.24837 -2.78127 -3.18055e-015 6.36111e-015 9.54166e-015 -6.36111e-015 0 6.36111e-015 16.7798 12.0226 20.2519 60.8181 31.9691 -6.34391 -24.3605 14.5262 15.1095 -4.85627 -9.76789 8.92594 3.18055e-015 0 -0 3.18055e-015 6.36111e-015 -0 -3.60347 -1.66517 0.945846 
